<mxfile host="app.diagrams.net" modified="2024-03-06T13:43:29.789Z" agent="Mozilla/5.0 (Macintosh; Intel Mac OS X 10_15_7) AppleWebKit/537.36 (KHTML, like Gecko) Chrome/122.0.0.0 Safari/537.36" etag="JUI3FthhqV_XJvn6BIMg" version="24.0.2" type="device">
  <diagram name="Page-1" id="2RRsDSpMer9sEVERHo-K">
    <mxGraphModel dx="1306" dy="1926" grid="1" gridSize="10" guides="1" tooltips="1" connect="1" arrows="1" fold="1" page="1" pageScale="1" pageWidth="850" pageHeight="1100" math="0" shadow="0">
      <root>
        <mxCell id="0" />
        <mxCell id="1" parent="0" />
        <mxCell id="0T_FGqLuQsuZokZaV_jl-1" value="" style="rounded=1;whiteSpace=wrap;html=1;fillColor=none;strokeColor=#F0931E;strokeWidth=2;fontFamily=Ubuntu;fontStyle=1" parent="1" vertex="1">
          <mxGeometry x="190" y="70" width="580" height="285" as="geometry" />
        </mxCell>
        <mxCell id="0T_FGqLuQsuZokZaV_jl-2" value="&lt;font style=&quot;font-size: 20px;&quot; color=&quot;#ffffff&quot;&gt;&lt;span&gt;&lt;br&gt;&lt;/span&gt;&lt;/font&gt;" style="rounded=1;whiteSpace=wrap;html=1;fillColor=#7DE2D1;strokeWidth=5;strokeColor=none;fontFamily=Ubuntu;fontStyle=1" parent="1" vertex="1">
          <mxGeometry x="210" y="280" width="460" height="60" as="geometry" />
        </mxCell>
        <mxCell id="0T_FGqLuQsuZokZaV_jl-3" value="" style="rounded=1;whiteSpace=wrap;html=1;fillColor=#009639;strokeColor=none;strokeWidth=5;fontFamily=Ubuntu;fontStyle=1" parent="1" vertex="1">
          <mxGeometry x="220.59" y="110" width="460" height="60" as="geometry" />
        </mxCell>
        <mxCell id="0T_FGqLuQsuZokZaV_jl-7" value="&lt;font color=&quot;#009639&quot; size=&quot;1&quot;&gt;&lt;span style=&quot;font-size: 20px;&quot;&gt;9200&lt;/span&gt;&lt;/font&gt;" style="rounded=1;whiteSpace=wrap;html=1;strokeColor=#009639;strokeWidth=1;fontFamily=Ubuntu;fontStyle=1" parent="1" vertex="1">
          <mxGeometry x="240" y="90" width="50" height="20" as="geometry" />
        </mxCell>
        <mxCell id="0T_FGqLuQsuZokZaV_jl-8" value="&lt;font color=&quot;#009639&quot; style=&quot;font-size: 20px;&quot;&gt;443&lt;/font&gt;" style="rounded=1;whiteSpace=wrap;html=1;strokeColor=#009639;strokeWidth=1;fontFamily=Ubuntu;fontStyle=1" parent="1" vertex="1">
          <mxGeometry x="425.59" y="90" width="50" height="20" as="geometry" />
        </mxCell>
        <mxCell id="0T_FGqLuQsuZokZaV_jl-9" value="&lt;div style=&quot;&quot;&gt;&lt;font color=&quot;#20377d&quot; style=&quot;font-size: 20px;&quot; face=&quot;Ubuntu&quot;&gt;5044&lt;/font&gt;&lt;/div&gt;" style="rounded=1;whiteSpace=wrap;html=1;strokeColor=#20377D;fontFamily=Ubuntu;fontStyle=1" parent="1" vertex="1">
          <mxGeometry x="425.59000000000003" y="260" width="50" height="20" as="geometry" />
        </mxCell>
        <mxCell id="0T_FGqLuQsuZokZaV_jl-10" value="" style="shape=flexArrow;endArrow=classic;html=1;rounded=0;entryX=0.5;entryY=0;entryDx=0;entryDy=0;strokeWidth=2;fontFamily=Ubuntu;fontStyle=1;exitX=0.5;exitY=0;exitDx=0;exitDy=0;" parent="1" source="0T_FGqLuQsuZokZaV_jl-3" target="0T_FGqLuQsuZokZaV_jl-9" edge="1">
          <mxGeometry width="50" height="50" relative="1" as="geometry">
            <mxPoint x="594.78" y="110" as="sourcePoint" />
            <mxPoint x="594.78" y="256" as="targetPoint" />
          </mxGeometry>
        </mxCell>
        <mxCell id="0T_FGqLuQsuZokZaV_jl-11" value="" style="endArrow=none;dashed=1;html=1;strokeWidth=3;rounded=0;fontFamily=Ubuntu;fontStyle=1" parent="1" edge="1">
          <mxGeometry width="50" height="50" relative="1" as="geometry">
            <mxPoint x="169" y="214.66" as="sourcePoint" />
            <mxPoint x="769" y="214.66" as="targetPoint" />
          </mxGeometry>
        </mxCell>
        <mxCell id="0T_FGqLuQsuZokZaV_jl-12" value="&lt;font&gt;&lt;span&gt;HTTPS ports&lt;/span&gt;&lt;/font&gt;" style="text;html=1;strokeColor=none;fillColor=none;align=center;verticalAlign=middle;whiteSpace=wrap;rounded=0;fontFamily=Ubuntu;fontStyle=1" parent="1" vertex="1">
          <mxGeometry x="70" y="85" width="100" height="30" as="geometry" />
        </mxCell>
        <mxCell id="0T_FGqLuQsuZokZaV_jl-13" value="&lt;font&gt;&lt;span&gt;HTTP ports&lt;/span&gt;&lt;/font&gt;" style="text;html=1;strokeColor=none;fillColor=none;align=center;verticalAlign=middle;whiteSpace=wrap;rounded=0;fontFamily=Ubuntu;fontStyle=1" parent="1" vertex="1">
          <mxGeometry x="70" y="255" width="100" height="30" as="geometry" />
        </mxCell>
        <mxCell id="0T_FGqLuQsuZokZaV_jl-14" value="" style="shape=flexArrow;endArrow=classic;html=1;rounded=0;entryX=0.5;entryY=0;entryDx=0;entryDy=0;strokeWidth=2;fontFamily=Ubuntu;fontStyle=1" parent="1" source="0T_FGqLuQsuZokZaV_jl-16" edge="1">
          <mxGeometry width="50" height="50" relative="1" as="geometry">
            <mxPoint x="120" y="115" as="sourcePoint" />
            <mxPoint x="120" y="265" as="targetPoint" />
          </mxGeometry>
        </mxCell>
        <mxCell id="0T_FGqLuQsuZokZaV_jl-15" value="" style="shape=flexArrow;endArrow=classic;html=1;rounded=0;entryX=0.5;entryY=0;entryDx=0;entryDy=0;strokeWidth=2;fontFamily=Ubuntu;fontStyle=1" parent="1" target="0T_FGqLuQsuZokZaV_jl-16" edge="1">
          <mxGeometry width="50" height="50" relative="1" as="geometry">
            <mxPoint x="120" y="115" as="sourcePoint" />
            <mxPoint x="120" y="265" as="targetPoint" />
          </mxGeometry>
        </mxCell>
        <mxCell id="0T_FGqLuQsuZokZaV_jl-16" value="&lt;font style=&quot;font-size: 12px;&quot;&gt;&lt;span&gt;reverse proxy&lt;br&gt;(nginx-ssl.conf)&lt;br&gt;&lt;/span&gt;&lt;/font&gt;" style="text;html=1;strokeColor=none;fillColor=none;align=center;verticalAlign=middle;whiteSpace=wrap;rounded=0;fontFamily=Ubuntu;fontStyle=1" parent="1" vertex="1">
          <mxGeometry x="70" y="197.5" width="100" height="30" as="geometry" />
        </mxCell>
        <mxCell id="0T_FGqLuQsuZokZaV_jl-17" value="&lt;font color=&quot;#20377d&quot; size=&quot;1&quot;&gt;&lt;span style=&quot;font-size: 20px;&quot;&gt;9200&lt;/span&gt;&lt;/font&gt;" style="rounded=1;whiteSpace=wrap;html=1;strokeColor=#20377D;strokeWidth=1;fontFamily=Ubuntu;fontStyle=1" parent="1" vertex="1">
          <mxGeometry x="325" y="300" width="50" height="20" as="geometry" />
        </mxCell>
        <mxCell id="0T_FGqLuQsuZokZaV_jl-18" style="edgeStyle=orthogonalEdgeStyle;rounded=0;orthogonalLoop=1;jettySize=auto;html=1;strokeWidth=2;strokeColor=#6666FF;fontFamily=Ubuntu;fontStyle=1;entryX=0.5;entryY=0;entryDx=0;entryDy=0;" parent="1" source="0T_FGqLuQsuZokZaV_jl-21" target="64lHu9-5L5IZM87kGv9m-1" edge="1">
          <mxGeometry relative="1" as="geometry" />
        </mxCell>
        <mxCell id="0T_FGqLuQsuZokZaV_jl-20" style="edgeStyle=orthogonalEdgeStyle;rounded=0;orthogonalLoop=1;jettySize=auto;html=1;exitX=0;exitY=0.5;exitDx=0;exitDy=0;exitPerimeter=0;entryX=0.5;entryY=0;entryDx=0;entryDy=0;curved=1;strokeWidth=2;strokeColor=#6666FF;fontFamily=Ubuntu;fontStyle=1" parent="1" source="0T_FGqLuQsuZokZaV_jl-21" target="0T_FGqLuQsuZokZaV_jl-8" edge="1">
          <mxGeometry relative="1" as="geometry" />
        </mxCell>
        <mxCell id="64lHu9-5L5IZM87kGv9m-3" style="edgeStyle=orthogonalEdgeStyle;rounded=0;orthogonalLoop=1;jettySize=auto;html=1;curved=1;strokeColor=#6666FF;strokeWidth=2;" parent="1" source="0T_FGqLuQsuZokZaV_jl-21" target="0T_FGqLuQsuZokZaV_jl-7" edge="1">
          <mxGeometry relative="1" as="geometry" />
        </mxCell>
        <mxCell id="0T_FGqLuQsuZokZaV_jl-21" value="" style="sketch=0;pointerEvents=1;shadow=0;dashed=0;html=1;strokeColor=none;labelPosition=center;verticalLabelPosition=bottom;verticalAlign=top;align=center;fillColor=#515151;shape=mxgraph.mscae.system_center.admin_console;fontFamily=Ubuntu;fontStyle=1" parent="1" vertex="1">
          <mxGeometry x="610" y="-40" width="50" height="36" as="geometry" />
        </mxCell>
        <mxCell id="0T_FGqLuQsuZokZaV_jl-22" value="&lt;font&gt;&lt;span&gt;Admin/Developers&lt;br&gt;&lt;/span&gt;&lt;/font&gt;" style="text;html=1;strokeColor=none;fillColor=none;align=center;verticalAlign=middle;whiteSpace=wrap;rounded=0;fontFamily=Ubuntu;fontStyle=1" parent="1" vertex="1">
          <mxGeometry x="659.9999999999999" y="-50" width="100" height="30" as="geometry" />
        </mxCell>
        <mxCell id="0T_FGqLuQsuZokZaV_jl-23" value="&lt;font&gt;&lt;span&gt;Kibana UI&lt;br&gt;&lt;/span&gt;&lt;/font&gt;" style="text;html=1;strokeColor=none;fillColor=none;align=center;verticalAlign=middle;whiteSpace=wrap;rounded=0;fontColor=#6666FF;fontFamily=Ubuntu;fontStyle=1" parent="1" vertex="1">
          <mxGeometry x="620" y="20" width="100" height="30" as="geometry" />
        </mxCell>
        <mxCell id="0T_FGqLuQsuZokZaV_jl-25" style="edgeStyle=orthogonalEdgeStyle;rounded=0;orthogonalLoop=1;jettySize=auto;html=1;exitX=0.5;exitY=1;exitDx=0;exitDy=0;entryX=0.5;entryY=0;entryDx=0;entryDy=0;strokeWidth=2;strokeColor=#FF0080;fontFamily=Ubuntu;fontStyle=1" parent="1" source="0T_FGqLuQsuZokZaV_jl-26" target="0T_FGqLuQsuZokZaV_jl-8" edge="1">
          <mxGeometry relative="1" as="geometry" />
        </mxCell>
        <mxCell id="0T_FGqLuQsuZokZaV_jl-26" value="&lt;font color=&quot;#f0931e&quot; style=&quot;font-size: 20px;&quot;&gt;&lt;span&gt;Other Services&lt;br&gt;Interacting with ELK&lt;br&gt;&lt;/span&gt;&lt;/font&gt;" style="rounded=1;whiteSpace=wrap;html=1;strokeWidth=2;strokeColor=#F0931E;fontFamily=Ubuntu;fontStyle=1;dashed=1;" parent="1" vertex="1">
          <mxGeometry x="349.09" y="-140" width="203" height="60" as="geometry" />
        </mxCell>
        <mxCell id="0T_FGqLuQsuZokZaV_jl-35" value="" style="shape=flexArrow;endArrow=classic;html=1;rounded=0;entryX=0;entryY=0.5;entryDx=0;entryDy=0;strokeWidth=2;fontFamily=Ubuntu;fontStyle=1" parent="1" target="0T_FGqLuQsuZokZaV_jl-17" edge="1">
          <mxGeometry width="50" height="50" relative="1" as="geometry">
            <mxPoint x="264.6" y="110" as="sourcePoint" />
            <mxPoint x="264.6" y="260" as="targetPoint" />
            <Array as="points">
              <mxPoint x="265" y="310" />
            </Array>
          </mxGeometry>
        </mxCell>
        <mxCell id="0T_FGqLuQsuZokZaV_jl-36" value="&lt;font color=&quot;#f0931e&quot;&gt;&lt;span&gt;ELK EC2&lt;/span&gt;&lt;/font&gt;" style="text;html=1;strokeColor=none;fillColor=none;align=center;verticalAlign=middle;whiteSpace=wrap;rounded=0;fontFamily=Ubuntu;fontStyle=1" parent="1" vertex="1">
          <mxGeometry x="660" y="80" width="100" height="30" as="geometry" />
        </mxCell>
        <mxCell id="0T_FGqLuQsuZokZaV_jl-39" value="&lt;font&gt;&lt;span&gt;&lt;font color=&quot;#ff0080&quot;&gt;https://elk.domain.com&lt;/font&gt;&lt;br&gt;&lt;/span&gt;&lt;/font&gt;" style="text;html=1;strokeColor=none;fillColor=none;align=center;verticalAlign=middle;whiteSpace=wrap;rounded=0;fontFamily=Ubuntu;fontStyle=1" parent="1" vertex="1">
          <mxGeometry x="310" y="-80" width="130" height="30" as="geometry" />
        </mxCell>
        <mxCell id="0T_FGqLuQsuZokZaV_jl-40" value="&lt;font&gt;&lt;span&gt;&lt;font color=&quot;#6666ff&quot;&gt;https://public-dns:port&lt;/font&gt;&lt;br&gt;&lt;/span&gt;&lt;/font&gt;" style="text;html=1;strokeColor=none;fillColor=none;align=center;verticalAlign=middle;whiteSpace=wrap;rounded=0;fontFamily=Ubuntu;fontStyle=1" parent="1" vertex="1">
          <mxGeometry x="460" y="-50" width="160" height="30" as="geometry" />
        </mxCell>
        <mxCell id="0T_FGqLuQsuZokZaV_jl-42" value="" style="shape=image;verticalLabelPosition=bottom;labelBackgroundColor=default;verticalAlign=top;aspect=fixed;imageAspect=0;image=https://miro.medium.com/v2/resize:fit:1400/1*vZDu4Bwj2GxQh8t1IjDq4w.png;" parent="1" vertex="1">
          <mxGeometry x="380" y="285" width="141.18" height="50" as="geometry" />
        </mxCell>
        <mxCell id="64lHu9-5L5IZM87kGv9m-1" value="&lt;font color=&quot;#009639&quot; size=&quot;1&quot;&gt;&lt;span style=&quot;font-size: 20px;&quot;&gt;5601&lt;/span&gt;&lt;/font&gt;" style="rounded=1;whiteSpace=wrap;html=1;strokeColor=#009639;strokeWidth=1;fontFamily=Ubuntu;fontStyle=1" parent="1" vertex="1">
          <mxGeometry x="610" y="90" width="50" height="20" as="geometry" />
        </mxCell>
        <mxCell id="64lHu9-5L5IZM87kGv9m-4" value="" style="shape=flexArrow;endArrow=classic;html=1;rounded=0;entryX=1;entryY=0.5;entryDx=0;entryDy=0;strokeWidth=2;fontFamily=Ubuntu;fontStyle=1;exitX=0.5;exitY=0;exitDx=0;exitDy=0;" parent="1" target="64lHu9-5L5IZM87kGv9m-5" edge="1">
          <mxGeometry width="50" height="50" relative="1" as="geometry">
            <mxPoint x="634.72" y="110" as="sourcePoint" />
            <mxPoint x="634.72" y="260" as="targetPoint" />
            <Array as="points">
              <mxPoint x="635" y="310" />
            </Array>
          </mxGeometry>
        </mxCell>
        <mxCell id="64lHu9-5L5IZM87kGv9m-5" value="&lt;font color=&quot;#20377d&quot; size=&quot;1&quot;&gt;&lt;span style=&quot;font-size: 20px;&quot;&gt;5601&lt;/span&gt;&lt;/font&gt;" style="rounded=1;whiteSpace=wrap;html=1;strokeColor=#20377D;strokeWidth=1;fontFamily=Ubuntu;fontStyle=1" parent="1" vertex="1">
          <mxGeometry x="521.1800000000001" y="300" width="50" height="20" as="geometry" />
        </mxCell>
        <mxCell id="64lHu9-5L5IZM87kGv9m-7" value="&lt;font&gt;&lt;span&gt;Elasticsearch&lt;br&gt;&lt;/span&gt;&lt;/font&gt;" style="text;html=1;strokeColor=none;fillColor=none;align=center;verticalAlign=middle;whiteSpace=wrap;rounded=0;fontColor=#6666FF;fontFamily=Ubuntu;fontStyle=1" parent="1" vertex="1">
          <mxGeometry x="290" y="20" width="100" height="30" as="geometry" />
        </mxCell>
        <mxCell id="64lHu9-5L5IZM87kGv9m-8" value="&lt;font&gt;&lt;span&gt;Logstash&lt;br&gt;&lt;/span&gt;&lt;/font&gt;" style="text;html=1;strokeColor=none;fillColor=none;align=center;verticalAlign=middle;whiteSpace=wrap;rounded=0;fontColor=#6666FF;fontFamily=Ubuntu;fontStyle=1" parent="1" vertex="1">
          <mxGeometry x="450" y="20" width="100" height="30" as="geometry" />
        </mxCell>
        <mxCell id="5Nu36u0T_Vsm3dw_mNiD-1" value="&lt;font size=&quot;1&quot; color=&quot;#ffffff&quot; face=&quot;Ubuntu&quot;&gt;&lt;b style=&quot;font-size: 22px;&quot;&gt;Nginx&lt;/b&gt;&lt;/font&gt;" style="text;html=1;align=center;verticalAlign=middle;whiteSpace=wrap;rounded=0;" vertex="1" parent="1">
          <mxGeometry x="325" y="125" width="60" height="30" as="geometry" />
        </mxCell>
      </root>
    </mxGraphModel>
  </diagram>
</mxfile>
